<mxfile host="app.diagrams.net" modified="2023-05-26T13:25:08.508Z" agent="Mozilla/5.0 (Macintosh; Intel Mac OS X 10_15_7) AppleWebKit/537.36 (KHTML, like Gecko) Chrome/113.0.0.0 Safari/537.36" etag="yLIi-_EwR_79bC9zZTso" version="21.3.3" type="device">
  <diagram name="DSS" id="2YBvvXClWsGukQMizWep">
    <mxGraphModel dx="679" dy="388" grid="1" gridSize="10" guides="1" tooltips="1" connect="1" arrows="1" fold="1" page="1" pageScale="1" pageWidth="850" pageHeight="1100" math="0" shadow="0">
      <root>
        <mxCell id="0" />
        <mxCell id="1" parent="0" />
        <mxCell id="Vmor8aQj5R9opVvXBtMT-30" value="" style="rounded=0;whiteSpace=wrap;html=1;" vertex="1" parent="1">
          <mxGeometry x="440" y="280" width="240" height="70" as="geometry" />
        </mxCell>
        <mxCell id="Vmor8aQj5R9opVvXBtMT-2" value=":Bibliotecario" style="shape=umlActor;verticalLabelPosition=bottom;verticalAlign=top;html=1;outlineConnect=0;" vertex="1" parent="1">
          <mxGeometry x="440" y="40" width="30" height="60" as="geometry" />
        </mxCell>
        <mxCell id="Vmor8aQj5R9opVvXBtMT-4" value=":Sistema" style="html=1;whiteSpace=wrap;" vertex="1" parent="1">
          <mxGeometry x="610" y="60" width="110" height="50" as="geometry" />
        </mxCell>
        <mxCell id="Vmor8aQj5R9opVvXBtMT-5" value="" style="endArrow=none;dashed=1;html=1;rounded=0;" edge="1" parent="1">
          <mxGeometry width="50" height="50" relative="1" as="geometry">
            <mxPoint x="454.66" y="140" as="sourcePoint" />
            <mxPoint x="454.66" y="110" as="targetPoint" />
          </mxGeometry>
        </mxCell>
        <mxCell id="Vmor8aQj5R9opVvXBtMT-6" value="" style="endArrow=none;dashed=1;html=1;rounded=0;" edge="1" parent="1">
          <mxGeometry width="50" height="50" relative="1" as="geometry">
            <mxPoint x="664.66" y="140" as="sourcePoint" />
            <mxPoint x="664.66" y="110" as="targetPoint" />
          </mxGeometry>
        </mxCell>
        <mxCell id="Vmor8aQj5R9opVvXBtMT-7" value="" style="html=1;points=[];perimeter=orthogonalPerimeter;outlineConnect=0;targetShapes=umlLifeline;portConstraint=eastwest;newEdgeStyle={&quot;edgeStyle&quot;:&quot;elbowEdgeStyle&quot;,&quot;elbow&quot;:&quot;vertical&quot;,&quot;curved&quot;:0,&quot;rounded&quot;:0};" vertex="1" parent="1">
          <mxGeometry x="450" y="140" width="10" height="190" as="geometry" />
        </mxCell>
        <mxCell id="Vmor8aQj5R9opVvXBtMT-8" value=":Socio" style="shape=umlActor;verticalLabelPosition=bottom;verticalAlign=top;html=1;outlineConnect=0;" vertex="1" parent="1">
          <mxGeometry x="260" y="40" width="30" height="60" as="geometry" />
        </mxCell>
        <mxCell id="Vmor8aQj5R9opVvXBtMT-9" value="" style="endArrow=none;dashed=1;html=1;rounded=0;" edge="1" parent="1">
          <mxGeometry width="50" height="50" relative="1" as="geometry">
            <mxPoint x="274.66" y="140" as="sourcePoint" />
            <mxPoint x="274.66" y="110" as="targetPoint" />
          </mxGeometry>
        </mxCell>
        <mxCell id="Vmor8aQj5R9opVvXBtMT-10" value="DatosPersonales" style="html=1;verticalAlign=bottom;endArrow=block;edgeStyle=elbowEdgeStyle;elbow=vertical;curved=0;rounded=0;" edge="1" parent="1" target="Vmor8aQj5R9opVvXBtMT-7">
          <mxGeometry relative="1" as="geometry">
            <mxPoint x="280" y="150" as="sourcePoint" />
            <Array as="points">
              <mxPoint x="365" y="150" />
            </Array>
            <mxPoint x="410" y="150" as="targetPoint" />
          </mxGeometry>
        </mxCell>
        <mxCell id="Vmor8aQj5R9opVvXBtMT-12" value="" style="html=1;points=[];perimeter=orthogonalPerimeter;outlineConnect=0;targetShapes=umlLifeline;portConstraint=eastwest;newEdgeStyle={&quot;edgeStyle&quot;:&quot;elbowEdgeStyle&quot;,&quot;elbow&quot;:&quot;vertical&quot;,&quot;curved&quot;:0,&quot;rounded&quot;:0};" vertex="1" parent="1">
          <mxGeometry x="270" y="140" width="10" height="190" as="geometry" />
        </mxCell>
        <mxCell id="Vmor8aQj5R9opVvXBtMT-14" value="" style="html=1;points=[];perimeter=orthogonalPerimeter;outlineConnect=0;targetShapes=umlLifeline;portConstraint=eastwest;newEdgeStyle={&quot;edgeStyle&quot;:&quot;elbowEdgeStyle&quot;,&quot;elbow&quot;:&quot;vertical&quot;,&quot;curved&quot;:0,&quot;rounded&quot;:0};" vertex="1" parent="1">
          <mxGeometry x="660" y="140" width="10" height="190" as="geometry" />
        </mxCell>
        <mxCell id="Vmor8aQj5R9opVvXBtMT-15" value="GestionarPrÃ©stamo()" style="html=1;verticalAlign=bottom;endArrow=block;edgeStyle=elbowEdgeStyle;elbow=vertical;curved=0;rounded=0;" edge="1" parent="1" target="Vmor8aQj5R9opVvXBtMT-14">
          <mxGeometry relative="1" as="geometry">
            <mxPoint x="460" y="160" as="sourcePoint" />
            <Array as="points">
              <mxPoint x="545" y="160" />
            </Array>
            <mxPoint x="630" y="160" as="targetPoint" />
          </mxGeometry>
        </mxCell>
        <mxCell id="Vmor8aQj5R9opVvXBtMT-16" value="" style="html=1;verticalAlign=bottom;endArrow=open;dashed=1;endSize=8;edgeStyle=elbowEdgeStyle;elbow=vertical;curved=0;rounded=0;" edge="1" parent="1" target="Vmor8aQj5R9opVvXBtMT-7">
          <mxGeometry relative="1" as="geometry">
            <mxPoint x="490" y="180" as="targetPoint" />
            <Array as="points">
              <mxPoint x="585" y="180" />
            </Array>
            <mxPoint x="660" y="180" as="sourcePoint" />
          </mxGeometry>
        </mxCell>
        <mxCell id="Vmor8aQj5R9opVvXBtMT-17" value="IngresarDatos(nroSocio, Apellido)" style="html=1;verticalAlign=bottom;endArrow=block;edgeStyle=elbowEdgeStyle;elbow=vertical;curved=0;rounded=0;" edge="1" parent="1" target="Vmor8aQj5R9opVvXBtMT-14">
          <mxGeometry relative="1" as="geometry">
            <mxPoint x="460" y="210" as="sourcePoint" />
            <Array as="points">
              <mxPoint x="545" y="210" />
            </Array>
            <mxPoint x="630" y="210" as="targetPoint" />
          </mxGeometry>
        </mxCell>
        <mxCell id="Vmor8aQj5R9opVvXBtMT-18" value="BD" style="shape=datastore;whiteSpace=wrap;html=1;" vertex="1" parent="1">
          <mxGeometry x="850" y="60" width="60" height="60" as="geometry" />
        </mxCell>
        <mxCell id="Vmor8aQj5R9opVvXBtMT-19" value="" style="endArrow=none;dashed=1;html=1;rounded=0;" edge="1" parent="1">
          <mxGeometry width="50" height="50" relative="1" as="geometry">
            <mxPoint x="879.66" y="150" as="sourcePoint" />
            <mxPoint x="879.66" y="120" as="targetPoint" />
          </mxGeometry>
        </mxCell>
        <mxCell id="Vmor8aQj5R9opVvXBtMT-20" value="" style="html=1;points=[];perimeter=orthogonalPerimeter;outlineConnect=0;targetShapes=umlLifeline;portConstraint=eastwest;newEdgeStyle={&quot;edgeStyle&quot;:&quot;elbowEdgeStyle&quot;,&quot;elbow&quot;:&quot;vertical&quot;,&quot;curved&quot;:0,&quot;rounded&quot;:0};" vertex="1" parent="1">
          <mxGeometry x="875" y="150" width="10" height="100" as="geometry" />
        </mxCell>
        <mxCell id="Vmor8aQj5R9opVvXBtMT-21" value="ComprobarDatos()" style="html=1;verticalAlign=bottom;endArrow=block;edgeStyle=elbowEdgeStyle;elbow=vertical;curved=0;rounded=0;" edge="1" parent="1" target="Vmor8aQj5R9opVvXBtMT-20">
          <mxGeometry relative="1" as="geometry">
            <mxPoint x="670" y="230" as="sourcePoint" />
            <Array as="points">
              <mxPoint x="755" y="230" />
            </Array>
            <mxPoint x="840" y="230" as="targetPoint" />
          </mxGeometry>
        </mxCell>
        <mxCell id="Vmor8aQj5R9opVvXBtMT-22" value="" style="endArrow=none;dashed=1;html=1;rounded=0;" edge="1" parent="1">
          <mxGeometry width="50" height="50" relative="1" as="geometry">
            <mxPoint x="880" y="340" as="sourcePoint" />
            <mxPoint x="879.66" y="250" as="targetPoint" />
          </mxGeometry>
        </mxCell>
        <mxCell id="Vmor8aQj5R9opVvXBtMT-23" value="" style="html=1;verticalAlign=bottom;endArrow=open;dashed=1;endSize=8;edgeStyle=elbowEdgeStyle;elbow=vertical;curved=0;rounded=0;" edge="1" parent="1">
          <mxGeometry relative="1" as="geometry">
            <mxPoint x="670" y="250" as="targetPoint" />
            <Array as="points">
              <mxPoint x="795" y="250" />
            </Array>
            <mxPoint x="870" y="250" as="sourcePoint" />
          </mxGeometry>
        </mxCell>
        <mxCell id="Vmor8aQj5R9opVvXBtMT-24" value="" style="html=1;verticalAlign=bottom;endArrow=open;dashed=1;endSize=8;edgeStyle=elbowEdgeStyle;elbow=vertical;curved=0;rounded=0;" edge="1" parent="1">
          <mxGeometry relative="1" as="geometry">
            <mxPoint x="460" y="250" as="targetPoint" />
            <Array as="points">
              <mxPoint x="585" y="250" />
            </Array>
            <mxPoint x="660" y="250" as="sourcePoint" />
          </mxGeometry>
        </mxCell>
        <mxCell id="Vmor8aQj5R9opVvXBtMT-25" value="Lista Ejemplares" style="text;html=1;align=center;verticalAlign=middle;resizable=0;points=[];autosize=1;strokeColor=none;fillColor=none;" vertex="1" parent="1">
          <mxGeometry x="495" y="228" width="110" height="30" as="geometry" />
        </mxCell>
        <mxCell id="Vmor8aQj5R9opVvXBtMT-26" value="Lista Ejemplares" style="html=1;verticalAlign=bottom;endArrow=block;edgeStyle=elbowEdgeStyle;elbow=vertical;curved=0;rounded=0;" edge="1" parent="1">
          <mxGeometry relative="1" as="geometry">
            <mxPoint x="280" y="280" as="sourcePoint" />
            <Array as="points">
              <mxPoint x="365" y="280" />
            </Array>
            <mxPoint x="450" y="280" as="targetPoint" />
          </mxGeometry>
        </mxCell>
        <mxCell id="Vmor8aQj5R9opVvXBtMT-27" value="SeleccionarEjemplares()" style="html=1;verticalAlign=bottom;endArrow=block;edgeStyle=elbowEdgeStyle;elbow=vertical;curved=0;rounded=0;" edge="1" parent="1" target="Vmor8aQj5R9opVvXBtMT-14">
          <mxGeometry relative="1" as="geometry">
            <mxPoint x="460" y="270" as="sourcePoint" />
            <Array as="points">
              <mxPoint x="590" y="300" />
              <mxPoint x="620" y="280" />
              <mxPoint x="545" y="270" />
            </Array>
            <mxPoint x="630" y="270" as="targetPoint" />
          </mxGeometry>
        </mxCell>
        <mxCell id="Vmor8aQj5R9opVvXBtMT-28" value="" style="html=1;verticalAlign=bottom;endArrow=open;dashed=1;endSize=8;edgeStyle=elbowEdgeStyle;elbow=vertical;curved=0;rounded=0;" edge="1" parent="1">
          <mxGeometry relative="1" as="geometry">
            <mxPoint x="460" y="320" as="targetPoint" />
            <Array as="points">
              <mxPoint x="585" y="320" />
            </Array>
            <mxPoint x="660" y="320" as="sourcePoint" />
          </mxGeometry>
        </mxCell>
        <mxCell id="Vmor8aQj5R9opVvXBtMT-31" value="" style="endArrow=none;dashed=1;html=1;rounded=0;" edge="1" parent="1">
          <mxGeometry width="50" height="50" relative="1" as="geometry">
            <mxPoint x="665" y="380" as="sourcePoint" />
            <mxPoint x="664.66" y="330" as="targetPoint" />
          </mxGeometry>
        </mxCell>
        <mxCell id="Vmor8aQj5R9opVvXBtMT-32" value="" style="endArrow=none;dashed=1;html=1;rounded=0;" edge="1" parent="1">
          <mxGeometry width="50" height="50" relative="1" as="geometry">
            <mxPoint x="455" y="380" as="sourcePoint" />
            <mxPoint x="454.65999999999997" y="330" as="targetPoint" />
          </mxGeometry>
        </mxCell>
        <mxCell id="Vmor8aQj5R9opVvXBtMT-33" value="*[mÃ¡s ejemplares]" style="text;html=1;align=center;verticalAlign=middle;resizable=0;points=[];autosize=1;strokeColor=none;fillColor=none;" vertex="1" parent="1">
          <mxGeometry x="495" y="330" width="120" height="30" as="geometry" />
        </mxCell>
        <mxCell id="Vmor8aQj5R9opVvXBtMT-34" value="" style="html=1;points=[];perimeter=orthogonalPerimeter;outlineConnect=0;targetShapes=umlLifeline;portConstraint=eastwest;newEdgeStyle={&quot;edgeStyle&quot;:&quot;elbowEdgeStyle&quot;,&quot;elbow&quot;:&quot;vertical&quot;,&quot;curved&quot;:0,&quot;rounded&quot;:0};" vertex="1" parent="1">
          <mxGeometry x="450" y="380" width="10" height="170" as="geometry" />
        </mxCell>
        <mxCell id="Vmor8aQj5R9opVvXBtMT-35" value="" style="html=1;points=[];perimeter=orthogonalPerimeter;outlineConnect=0;targetShapes=umlLifeline;portConstraint=eastwest;newEdgeStyle={&quot;edgeStyle&quot;:&quot;elbowEdgeStyle&quot;,&quot;elbow&quot;:&quot;vertical&quot;,&quot;curved&quot;:0,&quot;rounded&quot;:0};" vertex="1" parent="1">
          <mxGeometry x="660" y="380" width="10" height="190" as="geometry" />
        </mxCell>
        <mxCell id="Vmor8aQj5R9opVvXBtMT-36" value="ConfirmarEjemplares()" style="html=1;verticalAlign=bottom;endArrow=block;edgeStyle=elbowEdgeStyle;elbow=vertical;curved=0;rounded=0;" edge="1" parent="1">
          <mxGeometry relative="1" as="geometry">
            <mxPoint x="460" y="390" as="sourcePoint" />
            <Array as="points">
              <mxPoint x="590" y="400" />
              <mxPoint x="620" y="380" />
              <mxPoint x="545" y="370" />
            </Array>
            <mxPoint x="660" y="400" as="targetPoint" />
          </mxGeometry>
        </mxCell>
        <mxCell id="Vmor8aQj5R9opVvXBtMT-37" value="" style="html=1;verticalAlign=bottom;endArrow=open;dashed=1;endSize=8;edgeStyle=elbowEdgeStyle;elbow=vertical;curved=0;rounded=0;" edge="1" parent="1">
          <mxGeometry relative="1" as="geometry">
            <mxPoint x="460" y="420" as="targetPoint" />
            <Array as="points">
              <mxPoint x="585" y="420" />
            </Array>
            <mxPoint x="660" y="420" as="sourcePoint" />
          </mxGeometry>
        </mxCell>
        <mxCell id="Vmor8aQj5R9opVvXBtMT-38" value="AgregarFechaDevolucion()" style="html=1;verticalAlign=bottom;endArrow=block;edgeStyle=elbowEdgeStyle;elbow=vertical;curved=0;rounded=0;" edge="1" parent="1">
          <mxGeometry relative="1" as="geometry">
            <mxPoint x="460" y="440" as="sourcePoint" />
            <Array as="points">
              <mxPoint x="590" y="450" />
              <mxPoint x="620" y="430" />
              <mxPoint x="545" y="420" />
            </Array>
            <mxPoint x="660" y="450" as="targetPoint" />
          </mxGeometry>
        </mxCell>
        <mxCell id="Vmor8aQj5R9opVvXBtMT-39" value="" style="html=1;points=[];perimeter=orthogonalPerimeter;outlineConnect=0;targetShapes=umlLifeline;portConstraint=eastwest;newEdgeStyle={&quot;edgeStyle&quot;:&quot;elbowEdgeStyle&quot;,&quot;elbow&quot;:&quot;vertical&quot;,&quot;curved&quot;:0,&quot;rounded&quot;:0};" vertex="1" parent="1">
          <mxGeometry x="875" y="340" width="10" height="230" as="geometry" />
        </mxCell>
        <mxCell id="Vmor8aQj5R9opVvXBtMT-40" value="" style="endArrow=none;dashed=1;html=1;rounded=0;" edge="1" parent="1">
          <mxGeometry width="50" height="50" relative="1" as="geometry">
            <mxPoint x="275" y="380" as="sourcePoint" />
            <mxPoint x="274.65999999999997" y="330" as="targetPoint" />
          </mxGeometry>
        </mxCell>
        <mxCell id="Vmor8aQj5R9opVvXBtMT-41" value="" style="html=1;points=[];perimeter=orthogonalPerimeter;outlineConnect=0;targetShapes=umlLifeline;portConstraint=eastwest;newEdgeStyle={&quot;edgeStyle&quot;:&quot;elbowEdgeStyle&quot;,&quot;elbow&quot;:&quot;vertical&quot;,&quot;curved&quot;:0,&quot;rounded&quot;:0};" vertex="1" parent="1">
          <mxGeometry x="270" y="380" width="10" height="200" as="geometry" />
        </mxCell>
        <mxCell id="Vmor8aQj5R9opVvXBtMT-42" value="" style="html=1;verticalAlign=bottom;endArrow=open;dashed=1;endSize=8;edgeStyle=elbowEdgeStyle;elbow=vertical;curved=0;rounded=0;" edge="1" parent="1">
          <mxGeometry relative="1" as="geometry">
            <mxPoint x="460" y="470" as="targetPoint" />
            <Array as="points">
              <mxPoint x="585" y="470" />
            </Array>
            <mxPoint x="660" y="470" as="sourcePoint" />
          </mxGeometry>
        </mxCell>
        <mxCell id="Vmor8aQj5R9opVvXBtMT-43" value="ConfirmarPrÃ©stamo()" style="html=1;verticalAlign=bottom;endArrow=block;edgeStyle=elbowEdgeStyle;elbow=vertical;curved=0;rounded=0;" edge="1" parent="1">
          <mxGeometry relative="1" as="geometry">
            <mxPoint x="460" y="500" as="sourcePoint" />
            <Array as="points">
              <mxPoint x="590" y="510" />
              <mxPoint x="620" y="490" />
              <mxPoint x="545" y="480" />
            </Array>
            <mxPoint x="660" y="510" as="targetPoint" />
          </mxGeometry>
        </mxCell>
        <mxCell id="Vmor8aQj5R9opVvXBtMT-44" value="ActualizarEstadoPrÃ©stamo()" style="html=1;verticalAlign=bottom;endArrow=block;edgeStyle=elbowEdgeStyle;elbow=vertical;curved=0;rounded=0;" edge="1" parent="1" target="Vmor8aQj5R9opVvXBtMT-39">
          <mxGeometry relative="1" as="geometry">
            <mxPoint x="670" y="510" as="sourcePoint" />
            <Array as="points">
              <mxPoint x="800" y="520" />
              <mxPoint x="830" y="500" />
              <mxPoint x="755" y="490" />
            </Array>
            <mxPoint x="870" y="520" as="targetPoint" />
          </mxGeometry>
        </mxCell>
        <mxCell id="Vmor8aQj5R9opVvXBtMT-45" value="" style="html=1;verticalAlign=bottom;endArrow=open;dashed=1;endSize=8;edgeStyle=elbowEdgeStyle;elbow=vertical;curved=0;rounded=0;" edge="1" parent="1">
          <mxGeometry relative="1" as="geometry">
            <mxPoint x="670" y="530" as="targetPoint" />
            <Array as="points">
              <mxPoint x="795" y="530" />
            </Array>
            <mxPoint x="870" y="530" as="sourcePoint" />
          </mxGeometry>
        </mxCell>
        <mxCell id="Vmor8aQj5R9opVvXBtMT-46" value="" style="html=1;verticalAlign=bottom;endArrow=open;dashed=1;endSize=8;edgeStyle=elbowEdgeStyle;elbow=vertical;curved=0;rounded=0;" edge="1" parent="1">
          <mxGeometry relative="1" as="geometry">
            <mxPoint x="460" y="540" as="targetPoint" />
            <Array as="points">
              <mxPoint x="585" y="540" />
            </Array>
            <mxPoint x="660" y="540" as="sourcePoint" />
          </mxGeometry>
        </mxCell>
        <mxCell id="Vmor8aQj5R9opVvXBtMT-47" value="Factura" style="text;html=1;align=center;verticalAlign=middle;resizable=0;points=[];autosize=1;strokeColor=none;fillColor=none;" vertex="1" parent="1">
          <mxGeometry x="530" y="518" width="60" height="30" as="geometry" />
        </mxCell>
        <mxCell id="Vmor8aQj5R9opVvXBtMT-48" value="" style="html=1;verticalAlign=bottom;endArrow=open;dashed=1;endSize=8;edgeStyle=elbowEdgeStyle;elbow=vertical;curved=0;rounded=0;" edge="1" parent="1" target="Vmor8aQj5R9opVvXBtMT-41">
          <mxGeometry relative="1" as="geometry">
            <mxPoint x="460" y="570" as="targetPoint" />
            <Array as="points">
              <mxPoint x="585" y="570" />
            </Array>
            <mxPoint x="660" y="570" as="sourcePoint" />
          </mxGeometry>
        </mxCell>
        <mxCell id="Vmor8aQj5R9opVvXBtMT-49" value="Comprobante" style="text;html=1;align=center;verticalAlign=middle;resizable=0;points=[];autosize=1;strokeColor=none;fillColor=none;" vertex="1" parent="1">
          <mxGeometry x="510" y="548" width="100" height="30" as="geometry" />
        </mxCell>
        <mxCell id="Vmor8aQj5R9opVvXBtMT-50" value="" style="endArrow=none;dashed=1;html=1;rounded=0;" edge="1" parent="1">
          <mxGeometry width="50" height="50" relative="1" as="geometry">
            <mxPoint x="275" y="600" as="sourcePoint" />
            <mxPoint x="274.65999999999997" y="578" as="targetPoint" />
          </mxGeometry>
        </mxCell>
        <mxCell id="Vmor8aQj5R9opVvXBtMT-51" value="" style="endArrow=none;dashed=1;html=1;rounded=0;" edge="1" parent="1">
          <mxGeometry width="50" height="50" relative="1" as="geometry">
            <mxPoint x="455" y="600" as="sourcePoint" />
            <mxPoint x="454.65999999999997" y="552" as="targetPoint" />
          </mxGeometry>
        </mxCell>
        <mxCell id="Vmor8aQj5R9opVvXBtMT-52" value="" style="endArrow=none;dashed=1;html=1;rounded=0;" edge="1" parent="1">
          <mxGeometry width="50" height="50" relative="1" as="geometry">
            <mxPoint x="665" y="600" as="sourcePoint" />
            <mxPoint x="664.66" y="570" as="targetPoint" />
          </mxGeometry>
        </mxCell>
        <mxCell id="Vmor8aQj5R9opVvXBtMT-53" value="" style="endArrow=none;dashed=1;html=1;rounded=0;" edge="1" parent="1">
          <mxGeometry width="50" height="50" relative="1" as="geometry">
            <mxPoint x="880" y="600" as="sourcePoint" />
            <mxPoint x="879.66" y="570" as="targetPoint" />
          </mxGeometry>
        </mxCell>
        <mxCell id="Vmor8aQj5R9opVvXBtMT-54" value="X" style="text;html=1;align=center;verticalAlign=middle;resizable=0;points=[];autosize=1;strokeColor=none;fillColor=none;" vertex="1" parent="1">
          <mxGeometry x="260" y="590" width="30" height="30" as="geometry" />
        </mxCell>
        <mxCell id="Vmor8aQj5R9opVvXBtMT-55" value="X" style="text;html=1;align=center;verticalAlign=middle;resizable=0;points=[];autosize=1;strokeColor=none;fillColor=none;" vertex="1" parent="1">
          <mxGeometry x="440" y="580" width="30" height="30" as="geometry" />
        </mxCell>
        <mxCell id="Vmor8aQj5R9opVvXBtMT-56" value="X" style="text;html=1;align=center;verticalAlign=middle;resizable=0;points=[];autosize=1;strokeColor=none;fillColor=none;" vertex="1" parent="1">
          <mxGeometry x="865" y="580" width="30" height="30" as="geometry" />
        </mxCell>
        <mxCell id="Vmor8aQj5R9opVvXBtMT-57" value="X" style="text;html=1;align=center;verticalAlign=middle;resizable=0;points=[];autosize=1;strokeColor=none;fillColor=none;" vertex="1" parent="1">
          <mxGeometry x="650" y="580" width="30" height="30" as="geometry" />
        </mxCell>
      </root>
    </mxGraphModel>
  </diagram>
</mxfile>
